<svg width="105" height="94" viewBox="0 0 105 94" fill="none" xmlns="http://www.w3.org/2000/svg">
<path d="M98.4229 52.2321C95.9162 57.4596 92.2955 61.5302 87.5822 64.4439C82.8689 67.3576 77.32 68.8145 70.9356 68.8145H48.3331V-3.05176e-05H70.9356C77.3629 -3.05176e-05 82.9332 1.43539 87.6251 4.28481C92.317 7.13422 95.9162 11.162 98.4229 16.3466C100.929 21.5313 102.194 27.5086 102.194 34.2572C102.194 41.0273 100.951 47.0046 98.4229 52.2321ZM82.8475 48.7829C85.9754 45.3336 87.5394 40.5131 87.5394 34.2787C87.5394 28.0442 85.9754 23.2238 82.8475 19.7745C79.7195 16.3252 75.3276 14.6113 69.6716 14.6113H62.8159V53.9461H69.6716C75.3276 53.9461 79.7195 52.2321 82.8475 48.7829Z" fill="white"/>
<path d="M13.0688 12.2975H0V37.8994H13.0688V12.2975Z" fill="#FD367E"/>
<path d="M24.0381 19.2603C12.469 19.2603 2.74242 27.2087 0.0215454 37.9208H13.0903C15.2327 34.0859 19.3462 31.4935 24.0595 31.4935C31.0009 31.4935 36.6141 37.1067 36.6141 44.0481C36.6141 50.9895 31.0009 56.6027 24.0595 56.6027C19.3462 56.6027 15.2541 54.0104 13.0903 50.1754V66.2864C16.3896 67.9146 20.1174 68.8359 24.0595 68.8359C37.7495 68.8359 48.8473 57.7382 48.8473 44.0481C48.8044 30.358 37.7067 19.2603 24.0381 19.2603Z" fill="white"/>
<path d="M13.0646 0.0014677V12.299L44.9866 12.299V0.0014677L13.0646 0.0014677Z" fill="#FD367E"/>
<path d="M13.0688 50.1754H0V68.8359H13.0688V66.2864V50.1754Z" fill="#FFD900"/>
<path d="M55.7672 50.3682C55.2316 50.004 54.7174 49.6183 54.2246 49.2113C51.9751 48.1615 49.6399 47.1974 48.3758 44.9478C48.3544 44.9264 48.3544 44.905 48.333 44.8836V68.3002L49.897 67.379L63.5442 54.6959L62.0659 53.6675C59.7521 53.2176 57.6311 51.675 55.7672 50.3682Z" fill="#D6F1F2"/>
<path d="M46.4691 44.5837C45.4407 43.3196 43.7482 42.934 42.3557 42.2056C41.4558 41.7343 40.7488 41.0701 39.9133 40.5345C39.0778 40.0203 38.1565 39.699 37.3424 39.1633C36.9139 38.8848 36.5711 38.542 36.314 38.1778L34.1502 37.1709L46.3191 55.1458C46.3191 55.1458 48.7829 49.9183 48.6329 45.612C47.7974 45.5478 47.0047 45.2478 46.4691 44.5837Z" fill="#D6F1F2"/>
<path d="M96.5803 12.4259L88.2463 34.0215L89.8959 34.3857L96.4946 34.2786L96.5803 12.4259Z" fill="#D6F1F2"/>
<path d="M96.4946 34.2786V55.7028L103.136 35.6712L101.679 34.5143L96.4946 34.2786Z" fill="#D6F1F2"/>
<path d="M79.1839 67.379L79.5909 67.1433L96.4946 57.5024V43.4482" fill="#D6F1F2"/>
<path d="M102.686 36.2925C103.798 36.2925 104.7 35.3909 104.7 34.2786C104.7 33.1664 103.798 32.2648 102.686 32.2648C101.574 32.2648 100.672 33.1664 100.672 34.2786C100.672 35.3909 101.574 36.2925 102.686 36.2925Z" fill="#00A8C8"/>
<path d="M79.6766 68.8359C80.7888 68.8359 81.6905 67.9342 81.6905 66.822C81.6905 65.7098 80.7888 64.8081 79.6766 64.8081C78.5644 64.8081 77.6627 65.7098 77.6627 66.822C77.6627 67.9342 78.5644 68.8359 79.6766 68.8359Z" fill="#00A8C8"/>
<path d="M96.4946 58.895C97.6068 58.895 98.5085 57.9934 98.5085 56.8812C98.5085 55.7689 97.6068 54.8673 96.4946 54.8673C95.3824 54.8673 94.4807 55.7689 94.4807 56.8812C94.4807 57.9934 95.3824 58.895 96.4946 58.895Z" fill="#00A8C8"/>
<path d="M89.6817 35.6712C89.3175 36.0568 88.8033 36.2711 88.2463 36.2711C87.1322 36.2711 86.2324 35.3712 86.2324 34.2572C86.2324 33.1431 87.1322 32.2433 88.2463 32.2433C89.3603 32.2433 90.2601 33.1431 90.2601 34.2572C90.2601 34.8142 90.0459 35.307 89.6817 35.6712Z" fill="#00A8C8"/>
<path d="M48.6543 47.0046C49.7666 47.0046 50.6682 46.1029 50.6682 44.9907C50.6682 43.8785 49.7666 42.9768 48.6543 42.9768C47.5421 42.9768 46.6405 43.8785 46.6405 44.9907C46.6405 46.1029 47.5421 47.0046 48.6543 47.0046Z" fill="#00A8C8"/>
<path d="M63.5442 56.5812C64.6564 56.5812 65.558 55.6796 65.558 54.5673C65.558 53.4551 64.6564 52.5535 63.5442 52.5535C62.4319 52.5535 61.5303 53.4551 61.5303 54.5673C61.5303 55.6796 62.4319 56.5812 63.5442 56.5812Z" fill="#00A8C8"/>
<path d="M49.3614 70.3141C50.4736 70.3141 51.3752 69.4125 51.3752 68.3002C51.3752 67.188 50.4736 66.2864 49.3614 66.2864C48.2491 66.2864 47.3475 67.188 47.3475 68.3002C47.3475 69.4125 48.2491 70.3141 49.3614 70.3141Z" fill="#00A8C8"/>
<path d="M34.1502 39.1848C35.2624 39.1848 36.1641 38.2831 36.1641 37.1709C36.1641 36.0587 35.2624 35.157 34.1502 35.157C33.038 35.157 32.1363 36.0587 32.1363 37.1709C32.1363 38.2831 33.038 39.1848 34.1502 39.1848Z" fill="#00A8C8"/>
<path d="M24.4022 58.5737C25.5144 58.5737 26.4161 57.672 26.4161 56.5598C26.4161 55.4476 25.5144 54.5459 24.4022 54.5459C23.2899 54.5459 22.3883 55.4476 22.3883 56.5598C22.3883 57.672 23.2899 58.5737 24.4022 58.5737Z" fill="#00A8C8"/>
<path d="M96.4946 13.9042C97.6068 13.9042 98.5085 13.0026 98.5085 11.8903C98.5085 10.7781 97.6068 9.87646 96.4946 9.87646C95.3824 9.87646 94.4807 10.7781 94.4807 11.8903C94.4807 13.0026 95.3824 13.9042 96.4946 13.9042Z" fill="#00A8C8"/>
<path d="M96.8479 11.266L87.8058 34.1841L88.2442 34.3571L97.2863 11.439L96.8479 11.266Z" fill="#00A8C8"/>
<path d="M96.2375 58.5094V10.2621L103.5 34.4071L103.479 34.4714L96.2375 58.5094ZM96.7302 13.5186V55.2743L103.029 34.4286L96.7302 13.5186Z" fill="#00A8C8"/>
<path d="M46.4263 54.653L34.9643 37.9422C34.6858 37.8136 34.3859 37.6637 34.1073 37.5351L45.8692 54.6959L23.7809 56.3456V69.2643L46.3191 55.1244L46.7476 55.103L46.7048 54.6316L46.4263 54.653ZM24.2736 68.4074V56.7955L45.3122 55.2101L24.2736 68.4074Z" fill="#00A8C8"/>
<path d="M37.4281 39.0348L40.2347 40.406C39.3349 39.8918 38.3922 39.4419 37.4281 39.0348Z" fill="#00A8C8"/>
<path d="M78.8625 67.5718L102.215 34.5143H87.325V34.0215H103.136L102.879 34.4072L80.4907 66.0935L96.9445 56.6883L97.1802 57.0954L78.8625 67.5718Z" fill="#00A8C8"/>
<path d="M96.1089 56.6455L50.154 67.8503L63.4156 55.0172C63.2442 55.0387 63.0728 55.0601 62.9014 55.0601C62.8372 55.0601 62.7515 55.0601 62.6872 55.0601L48.5686 68.7287L96.2375 57.1168L96.1089 56.6455Z" fill="#00A8C8"/>
<path d="M64.4547 54.6966L64.1651 55.0685L79.5117 67.0224L79.8013 66.6506L64.4547 54.6966Z" fill="#00A8C8"/>
<path d="M33.5887 36.3567L33.3429 36.7589L63.7446 55.3391L63.9904 54.9369L33.5887 36.3567Z" fill="#00A8C8"/>
<path d="M9.55519 0H0V9.55519H9.55519V0Z" fill="#FFD900"/>
<path d="M10.9379 91.6121C10.5294 92.2928 9.91674 92.8375 9.0998 93.2459C8.30556 93.6544 7.32977 93.8586 6.17244 93.8586C4.44778 93.8586 3.01814 93.4275 1.90619 92.5878C0.794247 91.7482 0.181542 90.5682 0.0680783 89.0705H4.01662C4.0847 89.6605 4.28893 90.1143 4.62933 90.432C4.99241 90.7724 5.44627 90.9313 5.99089 90.9313C6.46744 90.9313 6.85322 90.7951 7.12553 90.5455C7.39784 90.2959 7.534 89.9328 7.534 89.5016C7.534 89.1158 7.39784 88.7755 7.14822 88.5258C6.8986 88.2762 6.58091 88.0493 6.19513 87.8904C5.80935 87.7316 5.28742 87.5274 4.62933 87.3004C3.65354 86.96 2.85929 86.6423 2.24658 86.3246C1.63388 86.0069 1.11195 85.5531 0.65809 84.9404C0.226928 84.3277 0 83.5334 0 82.5349C0 81.6272 0.226928 80.833 0.703476 80.1749C1.15733 79.5168 1.81542 78.9949 2.63236 78.6318C3.4493 78.2687 4.37971 78.1098 5.44627 78.1098C7.14822 78.1098 8.50979 78.5183 9.53097 79.3353C10.5294 80.1522 11.0968 81.2641 11.2329 82.6938H7.26169C7.19361 82.1945 7.01207 81.7861 6.71706 81.4911C6.42206 81.1961 6.01359 81.0372 5.51434 81.0372C5.08318 81.0372 4.7201 81.1507 4.47048 81.3776C4.19816 81.6045 4.06201 81.9449 4.06201 82.3988C4.06201 82.7619 4.17547 83.0796 4.42509 83.3292C4.67471 83.5788 4.96972 83.783 5.3328 83.9419C5.69589 84.1007 6.21782 84.305 6.8986 84.5546C7.87439 84.895 8.69133 85.2127 9.30404 85.5531C9.91674 85.8708 10.4614 86.3473 10.9152 86.9827C11.3691 87.5954 11.596 88.4124 11.596 89.4108C11.5506 90.1824 11.3464 90.9313 10.9379 91.6121Z" fill="white"/>
<path d="M22.5339 82.1491C23.487 82.6484 24.2359 83.3746 24.7805 84.305C25.3251 85.2581 25.5975 86.3473 25.5975 87.6181C25.5975 88.8889 25.3251 89.9782 24.7805 90.9313C24.2359 91.8843 23.487 92.5878 22.5339 93.0871C21.5808 93.5863 20.5143 93.8359 19.3116 93.8359C18.1088 93.8359 17.0196 93.5863 16.0665 93.0871C15.1134 92.5878 14.3645 91.8617 13.8199 90.9313C13.2753 89.9782 13.003 88.8889 13.003 87.6181C13.003 86.3473 13.2753 85.2581 13.8199 84.305C14.3645 83.3519 15.1134 82.6484 16.0665 82.1491C17.0196 81.6499 18.1088 81.4003 19.3116 81.4003C20.5143 81.4003 21.5808 81.6499 22.5339 82.1491ZM17.5188 85.3942C17.0423 85.9161 16.7927 86.6423 16.7927 87.6181C16.7927 88.5939 17.0423 89.3201 17.5188 89.842C17.9954 90.3412 18.6081 90.6135 19.3116 90.6135C20.015 90.6135 20.6277 90.3639 21.1043 89.842C21.5808 89.3428 21.8304 88.5939 21.8304 87.6181C21.8304 86.6423 21.5808 85.8934 21.1043 85.3942C20.6277 84.8723 20.0377 84.6227 19.3116 84.6227C18.5854 84.6227 17.9954 84.8723 17.5188 85.3942Z" fill="white"/>
<path d="M31.248 77.5879V93.6771H27.5263V77.5879H31.248Z" fill="white"/>
<path d="M45.8848 81.5591V93.6998H42.1405V91.4986C41.8001 92.2021 41.2782 92.7694 40.5747 93.2005C39.8939 93.6317 39.077 93.8359 38.1693 93.8359C36.785 93.8359 35.6731 93.3821 34.8561 92.4517C34.0392 91.5213 33.6307 90.2505 33.6307 88.6166V81.5591H37.3296V88.1401C37.3296 88.957 37.5339 89.6151 37.965 90.0689C38.3962 90.5228 38.9635 90.7497 39.6897 90.7497C40.4385 90.7497 41.0286 90.5001 41.4824 90.0236C41.9136 89.547 42.1405 88.8662 42.1405 87.9812V81.5365H45.8848V81.5591Z" fill="white"/>
<path d="M55.325 90.5001V93.6998H53.6457C52.2161 93.6998 51.1268 93.3594 50.3326 92.6559C49.5383 91.9524 49.1526 90.7951 49.1526 89.1612V84.7134H47.5187V81.5818H49.1526V78.6091H52.8742V81.5818H55.3023V84.7134H52.8742V89.2293C52.8742 89.7058 52.9649 90.0462 53.1692 90.2278C53.3734 90.4093 53.6911 90.5001 54.1677 90.5001H55.325Z" fill="white"/>
<path d="M57.6623 76.7483C58.0708 76.3852 58.6154 76.2036 59.2735 76.2036C59.9316 76.2036 60.4762 76.3852 60.8847 76.7483C61.2932 77.1114 61.4974 77.5879 61.4974 78.1552C61.4974 78.6999 61.2932 79.1764 60.8847 79.5395C60.4762 79.9026 59.9316 80.0841 59.2735 80.0841C58.6154 80.0841 58.0708 79.9026 57.6623 79.5395C57.2539 79.1764 57.0496 78.6999 57.0496 78.1552C57.0496 77.5652 57.2539 77.1114 57.6623 76.7483ZM61.1343 81.5591V93.6998H57.4127V81.5591H61.1343Z" fill="white"/>
<path d="M72.5942 82.1491C73.5473 82.6484 74.2962 83.3746 74.8408 84.305C75.3854 85.2581 75.6577 86.3473 75.6577 87.6181C75.6577 88.8889 75.3854 89.9782 74.8408 90.9313C74.2962 91.8843 73.5473 92.5878 72.5942 93.0871C71.6411 93.5863 70.5745 93.8359 69.3718 93.8359C68.1691 93.8359 67.0799 93.5863 66.1268 93.0871C65.1737 92.5878 64.4248 91.8617 63.8802 90.9313C63.3355 89.9782 63.0632 88.8889 63.0632 87.6181C63.0632 86.3473 63.3355 85.2581 63.8802 84.305C64.4248 83.3519 65.1737 82.6484 66.1268 82.1491C67.0799 81.6499 68.1691 81.4003 69.3718 81.4003C70.5745 81.4003 71.6411 81.6499 72.5942 82.1491ZM67.5791 85.3942C67.1026 85.9161 66.8529 86.6423 66.8529 87.6181C66.8529 88.5939 67.1026 89.3201 67.5791 89.842C68.0556 90.3412 68.6684 90.6135 69.3718 90.6135C70.0753 90.6135 70.688 90.3639 71.1646 89.842C71.6411 89.3428 71.8907 88.5939 71.8907 87.6181C71.8907 86.6423 71.6411 85.8934 71.1646 85.3942C70.688 84.8723 70.098 84.6227 69.3718 84.6227C68.6684 84.6227 68.0556 84.8723 67.5791 85.3942Z" fill="white"/>
<path d="M88.6153 82.8072C89.4322 83.7376 89.8407 85.0084 89.8407 86.6423V93.6997H86.1191V87.0961C86.1191 86.2792 85.9149 85.6438 85.4837 85.19C85.0525 84.7361 84.4852 84.5092 83.7817 84.5092C83.0329 84.5092 82.4202 84.7588 81.989 85.2353C81.5352 85.7119 81.3309 86.3927 81.3309 87.2777V93.7224H77.6093V81.5818H81.3309V83.8057C81.6713 83.0795 82.1932 82.5122 82.8967 82.081C83.5775 81.6499 84.3944 81.4456 85.3248 81.4456C86.6864 81.423 87.7757 81.8995 88.6153 82.8072Z" fill="white"/>
<path d="M100.393 82.5576C101.323 83.3292 101.891 84.3504 102.117 85.5985H98.6455C98.5547 85.0992 98.3051 84.7135 97.9647 84.4411C97.6016 84.1688 97.1705 84.01 96.6259 84.01C96.1947 84.01 95.877 84.1008 95.6728 84.2823C95.4458 84.4638 95.3551 84.7135 95.3551 85.0539C95.3551 85.4396 95.5593 85.7119 95.9451 85.8935C96.3535 86.075 96.9662 86.2793 97.8286 86.4608C98.759 86.6877 99.5078 86.892 100.121 87.1189C100.711 87.3458 101.232 87.7089 101.664 88.2082C102.095 88.7074 102.322 89.3882 102.322 90.2505C102.322 90.954 102.14 91.5667 101.754 92.0886C101.369 92.6332 100.824 93.0417 100.121 93.3594C99.4171 93.6544 98.5774 93.8133 97.6016 93.8133C95.9678 93.8133 94.6516 93.4502 93.6758 92.724C92.7 91.9978 92.0873 90.954 91.8604 89.6151H95.4458C95.5139 90.137 95.7181 90.5455 96.1039 90.8178C96.4897 91.0901 96.9889 91.2263 97.6016 91.2263C98.0328 91.2263 98.3505 91.1355 98.5547 90.9313C98.7817 90.727 98.8724 90.4774 98.8724 90.1597C98.8724 89.7286 98.6682 89.4336 98.2824 89.252C97.874 89.0705 97.2386 88.8889 96.3308 88.6847C95.4231 88.5032 94.697 88.2989 94.107 88.072C93.5169 87.8451 93.0177 87.5047 92.6092 87.0281C92.1781 86.5516 91.9738 85.8708 91.9738 85.0312C91.9738 83.9419 92.3823 83.0569 93.2219 82.3988C94.0389 81.718 95.2189 81.3776 96.7166 81.3776C98.237 81.4003 99.4624 81.7861 100.393 82.5576Z" fill="white"/>
</svg>
