<svg width="81" height="72" viewBox="0 0 81 72" fill="none" xmlns="http://www.w3.org/2000/svg">
<g clip-path="url(#clip0_1_185)">
<path d="M10.11 -0.0048418V9.47406L34.8112 9.47406V-0.0048418L10.11 -0.0048418Z" fill="#ED3B7E"/>
<path d="M7.39378 0H0V7.36514H7.39378V0Z" fill="#FDD800"/>
<path d="M10.1126 9.47888H0V29.2128H10.1126V9.47888Z" fill="#ED3B7E"/>
<path d="M10.1126 38.6587H0V53.0587H10.1126V51.0936V38.6587Z" fill="#FDD800"/>
<path d="M76.1592 40.2605C74.2196 44.2899 71.4179 47.4275 67.7708 49.6734C64.1236 51.9193 59.8299 53.0422 54.8897 53.0422H37.3999V0H54.8897C59.8631 0 64.1733 1.10642 67.8039 3.30275C71.4345 5.49908 74.2196 8.60367 76.1592 12.6C78.0988 16.5963 79.0769 21.2037 79.0769 26.4055C79.0769 31.6238 78.0988 36.2312 76.1592 40.2605ZM64.107 37.6018C66.5274 34.9431 67.7376 31.2275 67.7376 26.422C67.7376 21.6165 66.5274 17.9009 64.107 15.2422C61.6866 12.5835 58.2882 11.2624 53.9116 11.2624H48.6066V41.5816H53.9116C58.2882 41.5816 61.6866 40.244 64.107 37.6018Z" fill="#00A7C7"/>
<path d="M43.1525 38.8073C42.738 38.5266 42.3401 38.2293 41.9588 37.9156C40.2182 37.1064 38.4112 36.3633 37.4331 34.6293C37.4165 34.6128 37.4165 34.5963 37.3999 34.5798V52.6293L38.6101 51.9192L49.1703 42.1431L48.0264 41.3504C46.2194 41.0201 44.5947 39.8312 43.1525 38.8073Z" fill="#1AC0E2"/>
<path d="M18.5839 14.8459C9.6318 14.8459 2.1054 20.9725 0 29.2293H10.1126C11.7704 26.2734 14.9533 24.2752 18.6005 24.2752C23.9718 24.2752 28.3152 28.6018 28.3152 33.9523C28.3152 39.3027 23.9718 43.6293 18.6005 43.6293C14.9533 43.6293 11.7869 41.6312 10.1126 38.6752V51.0936C12.6656 52.3486 15.5501 53.0587 18.6005 53.0587C29.1938 53.0587 37.7812 44.5046 37.7812 33.9523C37.7646 23.4 29.1772 14.8459 18.5839 14.8459Z" fill="#ED3B7E"/>
<path d="M35.9576 34.3651C35.1619 33.3908 33.8522 33.0936 32.7747 32.5321C32.0784 32.1688 31.5313 31.6569 30.8848 31.244C30.2382 30.8477 29.5254 30.6 28.8954 30.1871C28.5639 29.9725 28.2986 29.7082 28.0997 29.4275L26.4253 28.6514L35.8416 42.5064C35.8416 42.5064 37.7481 38.4771 37.632 35.1578C36.9855 35.1082 36.3721 34.8771 35.9576 34.3651Z" fill="#F06DA0"/>
<path d="M74.7169 9.57797L68.2847 26.2238L69.5612 26.5046L74.6506 26.4055L74.7169 9.57797Z" fill="#1AC0E2"/>
<path d="M74.6506 26.4055V42.9358L79.8064 27.4954L78.6791 26.6037L74.6506 26.4055Z" fill="#1AC0E2"/>
<path d="M61.2722 51.9358L61.5872 51.7542L74.6506 44.3064V33.4899" fill="#1AC0E2"/>
<path d="M79.4417 27.9578C80.3023 27.9578 81 27.2628 81 26.4055C81 25.5482 80.3023 24.8532 79.4417 24.8532C78.5811 24.8532 77.8834 25.5482 77.8834 26.4055C77.8834 27.2628 78.5811 27.9578 79.4417 27.9578Z" fill="white"/>
<path d="M61.6535 53.0587C62.5141 53.0587 63.2118 52.3637 63.2118 51.5064C63.2118 50.6491 62.5141 49.9541 61.6535 49.9541C60.7928 49.9541 60.0952 50.6491 60.0952 51.5064C60.0952 52.3637 60.7928 53.0587 61.6535 53.0587Z" fill="white"/>
<path d="M74.6506 45.3964C75.5113 45.3964 76.209 44.7014 76.209 43.8441C76.209 42.9868 75.5113 42.2918 74.6506 42.2918C73.79 42.2918 73.0923 42.9868 73.0923 43.8441C73.0923 44.7014 73.79 45.3964 74.6506 45.3964Z" fill="white"/>
<path d="M69.3954 27.4954C69.1136 27.7927 68.7157 27.9578 68.2847 27.9578C67.4227 27.9578 66.7264 27.2642 66.7264 26.4055C66.7264 25.5468 67.4227 24.8532 68.2847 24.8532C69.1468 24.8532 69.843 25.5468 69.843 26.4055C69.843 26.8349 69.6773 27.2147 69.3954 27.4954Z" fill="white"/>
<path d="M37.632 36.2312C38.4926 36.2312 39.1903 35.5363 39.1903 34.6789C39.1903 33.8216 38.4926 33.1266 37.632 33.1266C36.7714 33.1266 36.0737 33.8216 36.0737 34.6789C36.0737 35.5363 36.7714 36.2312 37.632 36.2312Z" fill="white"/>
<path d="M49.1703 43.5963C50.0309 43.5963 50.7286 42.9013 50.7286 42.044C50.7286 41.1867 50.0309 40.4918 49.1703 40.4918C48.3096 40.4918 47.6119 41.1867 47.6119 42.044C47.6119 42.9013 48.3096 43.5963 49.1703 43.5963Z" fill="white"/>
<path d="M38.1957 54.1982C39.0563 54.1982 39.754 53.5032 39.754 52.6459C39.754 51.7886 39.0563 51.0936 38.1957 51.0936C37.335 51.0936 36.6373 51.7886 36.6373 52.6459C36.6373 53.5032 37.335 54.1982 38.1957 54.1982Z" fill="white"/>
<path d="M26.4253 30.2037C27.2859 30.2037 27.9836 29.5087 27.9836 28.6514C27.9836 27.7941 27.2859 27.0991 26.4253 27.0991C25.5646 27.0991 24.8669 27.7941 24.8669 28.6514C24.8669 29.5087 25.5646 30.2037 26.4253 30.2037Z" fill="white"/>
<path d="M18.8823 45.1486C19.7429 45.1486 20.4406 44.4536 20.4406 43.5963C20.4406 42.739 19.7429 42.044 18.8823 42.044C18.0217 42.044 17.324 42.739 17.324 43.5963C17.324 44.4536 18.0217 45.1486 18.8823 45.1486Z" fill="white"/>
<path d="M74.6506 10.7174C75.5113 10.7174 76.209 10.0225 76.209 9.16515C76.209 8.30784 75.5113 7.61285 74.6506 7.61285C73.79 7.61285 73.0923 8.30784 73.0923 9.16515C73.0923 10.0225 73.79 10.7174 74.6506 10.7174Z" fill="white"/>
<path d="M74.9369 8.69472L67.9401 26.36L68.2794 26.4933L75.2761 8.82805L74.9369 8.69472Z" fill="white"/>
<path d="M74.4683 45.0825V7.91006L80.0882 26.5211L80.0716 26.5706L74.4683 45.0825ZM74.8496 10.4036V42.6055L79.7235 26.5376L74.8496 10.4036Z" fill="white"/>
<path d="M35.9245 42.1266L27.0553 29.2459C26.8397 29.1468 26.6076 29.0312 26.3921 28.9321L35.4934 42.1596L18.4016 43.4312V53.389L35.8416 42.4899L36.1731 42.4734L36.14 42.1101L35.9245 42.1266ZM18.7828 52.7284V43.7614L35.0624 42.5394L18.7828 52.7284Z" fill="white"/>
<path d="M28.9617 30.0715L31.1334 31.1284C30.4206 30.7321 29.7077 30.4018 28.9617 30.0715Z" fill="white"/>
<path d="M61.007 52.0844L79.0935 26.6037H67.5718V26.2239H79.8064L79.5909 26.5211L62.2835 50.9284L75.0153 43.6789L75.1977 44.0092L61.007 52.0844Z" fill="white"/>
<path d="M74.3688 43.6624L38.809 52.2991L49.0708 42.4073C48.9382 42.4239 48.8056 42.4404 48.6729 42.4404C48.6232 42.4404 48.5569 42.4404 48.5072 42.4404L37.5823 52.9762L74.4683 44.0257L74.3688 43.6624Z" fill="white"/>
<path d="M49.8771 42.1561L49.653 42.4427L61.5281 51.6568L61.7522 51.3702L49.8771 42.1561Z" fill="white"/>
<path d="M25.9766 28.0118L25.7864 28.3218L49.3111 42.6434L49.5013 42.3334L25.9766 28.0118Z" fill="white"/>
<path d="M8.05693 70.3817C7.75853 70.8771 7.31092 71.2734 6.71411 71.5706C6.13388 71.8679 5.42103 72.0165 4.57556 72.0165C3.31563 72.0165 2.27122 71.7028 1.4589 71.0917C0.646575 70.4807 0.198969 69.622 0.116079 68.5321H3.00065C3.05038 68.9615 3.19958 69.2917 3.44825 69.5229C3.7135 69.7706 4.04506 69.8862 4.44293 69.8862C4.79107 69.8862 5.07289 69.7872 5.27183 69.6055C5.47077 69.4239 5.57023 69.1596 5.57023 68.8459C5.57023 68.5651 5.47077 68.3174 5.28841 68.1358C5.10605 67.9541 4.87396 67.789 4.59213 67.6734C4.31031 67.5578 3.92901 67.4092 3.44825 67.244C2.7354 66.9963 2.15517 66.7651 1.70757 66.5339C1.25996 66.3028 0.878666 65.9725 0.547107 65.5266C0.232125 65.0807 0.0663452 64.5028 0.0663452 63.7762C0.0663452 63.1156 0.232125 62.5376 0.580263 62.0587C0.911822 61.5798 1.39258 61.2 1.98939 60.9358C2.5862 60.6716 3.2659 60.556 4.04506 60.556C5.28841 60.556 6.28309 60.8532 7.0291 61.4477C7.75853 62.0422 8.17298 62.8514 8.27244 63.8917H5.3713C5.32156 63.5284 5.18894 63.2312 4.97343 63.0165C4.75791 62.8018 4.45951 62.6862 4.09479 62.6862C3.77981 62.6862 3.51456 62.7688 3.33221 62.9339C3.13327 63.0991 3.0338 63.3468 3.0338 63.6771C3.0338 63.9413 3.11669 64.1725 3.29905 64.3541C3.48141 64.5358 3.69692 64.6844 3.96217 64.8C4.22742 64.9156 4.60871 65.0642 5.10605 65.2459C5.8189 65.4936 6.41571 65.7248 6.86332 65.9725C7.31092 66.2037 7.70879 66.5505 8.04035 67.0128C8.37191 67.4587 8.53769 68.0532 8.53769 68.7798C8.50454 69.3413 8.35533 69.8862 8.05693 70.3817Z" fill="#4EBA80"/>
<path d="M16.5283 63.4954C17.2246 63.8587 17.7716 64.3871 18.1695 65.0642C18.5674 65.7578 18.7663 66.5504 18.7663 67.4752C18.7663 68.4 18.5674 69.1926 18.1695 69.8862C17.7716 70.5798 17.2246 71.0917 16.5283 71.455C15.832 71.8183 15.0529 72 14.1742 72C13.2956 72 12.4999 71.8183 11.8036 71.455C11.1073 71.0917 10.5602 70.5633 10.1624 69.8862C9.76449 69.1926 9.56555 68.4 9.56555 67.4752C9.56555 66.5504 9.76449 65.7578 10.1624 65.0642C10.5602 64.3706 11.1073 63.8587 11.8036 63.4954C12.4999 63.1321 13.2956 62.9504 14.1742 62.9504C15.0529 62.9504 15.832 63.1321 16.5283 63.4954ZM12.8646 65.8569C12.5164 66.2367 12.3341 66.7651 12.3341 67.4752C12.3341 68.1853 12.5164 68.7137 12.8646 69.0936C13.2127 69.4569 13.6603 69.655 14.1742 69.655C14.6881 69.655 15.1358 69.4734 15.4839 69.0936C15.832 68.7303 16.0144 68.1853 16.0144 67.4752C16.0144 66.7651 15.832 66.2202 15.4839 65.8569C15.1358 65.477 14.7047 65.2954 14.1742 65.2954C13.6437 65.2954 13.2127 65.477 12.8646 65.8569Z" fill="#4EBA80"/>
<path d="M22.8942 60.1761V71.8844H20.1754V60.1761H22.8942Z" fill="#4EBA80"/>
<path d="M33.587 63.066V71.9009H30.8516V70.2991C30.603 70.811 30.2217 71.2238 29.7077 71.5376C29.2104 71.8514 28.6136 72 27.9505 72C26.9392 72 26.1269 71.6697 25.5301 70.9927C24.9333 70.3156 24.6349 69.3908 24.6349 68.2018V63.066H27.3371V67.855C27.3371 68.4495 27.4863 68.9284 27.8013 69.2587C28.1163 69.589 28.5307 69.7541 29.0612 69.7541C29.6083 69.7541 30.0393 69.5725 30.3709 69.2257C30.6859 68.8789 30.8516 68.3835 30.8516 67.7394V63.0495H33.587V63.066Z" fill="#4EBA80"/>
<path d="M40.4835 69.5725V71.9009H39.2567C38.2123 71.9009 37.4165 71.6532 36.8363 71.1413C36.2561 70.6293 35.9743 69.7871 35.9743 68.5981V65.3615H34.7806V63.0826H35.9743V60.9193H38.693V63.0826H40.4669V65.3615H38.693V68.6477C38.693 68.9945 38.7594 69.2422 38.9086 69.3743C39.0578 69.5064 39.2899 69.5725 39.638 69.5725H40.4835Z" fill="#4EBA80"/>
<path d="M42.191 59.5651C42.4894 59.3009 42.8873 59.1688 43.3681 59.1688C43.8488 59.1688 44.2467 59.3009 44.5451 59.5651C44.8435 59.8293 44.9927 60.1761 44.9927 60.589C44.9927 60.9853 44.8435 61.3321 44.5451 61.5963C44.2467 61.8605 43.8488 61.9926 43.3681 61.9926C42.8873 61.9926 42.4894 61.8605 42.191 61.5963C41.8926 61.3321 41.7434 60.9853 41.7434 60.589C41.7434 60.1596 41.8926 59.8293 42.191 59.5651ZM44.7274 63.066V71.9009H42.0087V63.066H44.7274Z" fill="#4EBA80"/>
<path d="M53.0993 63.4954C53.7956 63.8587 54.3426 64.3871 54.7405 65.0642C55.1384 65.7578 55.3373 66.5504 55.3373 67.4752C55.3373 68.4 55.1384 69.1926 54.7405 69.8862C54.3426 70.5798 53.7956 71.0917 53.0993 71.455C52.403 71.8183 51.6238 72 50.7452 72C49.8666 72 49.0708 71.8183 48.3746 71.455C47.6783 71.0917 47.1312 70.5633 46.7333 69.8862C46.3355 69.1926 46.1365 68.4 46.1365 67.4752C46.1365 66.5504 46.3355 65.7578 46.7333 65.0642C47.1312 64.3706 47.6783 63.8587 48.3746 63.4954C49.0708 63.1321 49.8666 62.9504 50.7452 62.9504C51.6238 62.9504 52.403 63.1321 53.0993 63.4954ZM49.4356 65.8569C49.0874 66.2367 48.9051 66.7651 48.9051 67.4752C48.9051 68.1853 49.0874 68.7137 49.4356 69.0936C49.7837 69.4569 50.2313 69.655 50.7452 69.655C51.2591 69.655 51.7067 69.4734 52.0549 69.0936C52.403 68.7303 52.5854 68.1853 52.5854 67.4752C52.5854 66.7651 52.403 66.2202 52.0549 65.8569C51.7067 65.477 51.2757 65.2954 50.7452 65.2954C50.2313 65.2954 49.7837 65.477 49.4356 65.8569Z" fill="#4EBA80"/>
<path d="M64.8033 63.9743C65.4001 64.6514 65.6985 65.5761 65.6985 66.7651V71.9009H62.9797V67.0954C62.9797 66.5009 62.8305 66.0385 62.5156 65.7082C62.2006 65.378 61.7861 65.2128 61.2722 65.2128C60.7251 65.2128 60.2775 65.3945 59.9626 65.7413C59.631 66.0881 59.4818 66.5835 59.4818 67.2275V71.9174H56.763V63.0826H59.4818V64.7009C59.7305 64.1725 60.1118 63.7596 60.6257 63.4459C61.123 63.1321 61.7198 62.9835 62.3995 62.9835C63.3942 62.967 64.1899 63.3137 64.8033 63.9743Z" fill="#4EBA80"/>
<path d="M73.4073 63.7926C74.087 64.3541 74.5015 65.0972 74.6673 66.0055H72.1308C72.0645 65.6422 71.8822 65.3615 71.6335 65.1633C71.3682 64.9651 71.0533 64.8495 70.6554 64.8495C70.3404 64.8495 70.1083 64.9156 69.9591 65.0477C69.7933 65.1798 69.727 65.3615 69.727 65.6092C69.727 65.8899 69.8762 66.0881 70.158 66.2202C70.4564 66.3523 70.9041 66.5009 71.534 66.633C72.2137 66.7982 72.7608 66.9468 73.2084 67.1119C73.6394 67.277 74.0207 67.5413 74.3357 67.9046C74.6507 68.2679 74.8165 68.7633 74.8165 69.3908C74.8165 69.9027 74.6838 70.3486 74.402 70.7284C74.1202 71.1248 73.7223 71.422 73.2084 71.6532C72.6945 71.8679 72.0811 71.9835 71.3682 71.9835C70.1746 71.9835 69.2131 71.7193 68.5002 71.1908C67.7874 70.6624 67.3398 69.9027 67.174 68.9284H69.7933C69.8431 69.3082 69.9923 69.6055 70.2741 69.8037C70.5559 70.0018 70.9206 70.1009 71.3682 70.1009C71.6832 70.1009 71.9153 70.0349 72.0645 69.8862C72.2303 69.7376 72.2966 69.5559 72.2966 69.3248C72.2966 69.011 72.1474 68.7963 71.8656 68.6642C71.5672 68.5321 71.103 68.4 70.4399 68.2514C69.7767 68.1193 69.2463 67.9706 68.8152 67.8055C68.3842 67.6404 68.0195 67.3926 67.7211 67.0459C67.4061 66.6991 67.2569 66.2037 67.2569 65.5926C67.2569 64.8 67.5553 64.1559 68.1687 63.677C68.7655 63.1816 69.6275 62.9339 70.7217 62.9339C71.8324 62.9504 72.7276 63.2312 73.4073 63.7926Z" fill="#4EBA80"/>
</g>
<defs>
<clipPath id="clip0_1_185">
<rect width="81" height="72" fill="white"/>
</clipPath>
</defs>
</svg>
